<svg>
  <symbol id="svg-logotype" viewBox="0 0 205 47" xmlns="http://www.w3.org/2000/svg">
    <path d="M129.312 19.8947C130.188 16.6469 133.126 14.1355 136.769 14.1355C140.743 14.1355 143.412 16.5706 144.298 19.8947H129.312ZM136.748 6.36017C127.849 6.36017 119.418 13.4612 119.418 23.3186C119.418 33.1768 126.932 40.2794 137.299 40.2794C144.298 40.2794 149.838 37.2699 152.453 34.2515L145.984 29.0793C143.919 30.8801 141.484 32.1332 137.551 32.1332C133.688 32.1332 130.18 30.1555 129.192 26.2031H153.835C153.982 25.2697 154.079 24.3134 154.079 23.3186C154.079 13.7536 147.116 6.36017 136.748 6.36017ZM102.708 36.2707C107.371 31.262 114.072 21.0997 114.072 13.892C114.072 8.98327 111.841 7.13811 107.15 7.11367C105.368 7.10402 103.625 7.27873 101.777 7.49631C102.989 8.79157 103.773 10.2283 103.773 13.3495C103.773 20.7414 99.7988 28.6345 96.6801 32.5847C91.1763 13.5323 90.1997 7.11292 78.3222 7.11292C76.8524 7.11292 75.6521 7.20028 74.0321 7.4171C80.9782 12.7862 84.3983 22.9604 90.4055 39.6909H95.5354C91.2519 42.0639 87.0795 44.5301 83.3099 44.5301C84.9062 46.2317 86.7663 46.9178 88.8069 46.9178C96.5349 46.9178 106.444 37.939 114.877 38.7154C112.453 36.3751 110.031 35.3729 107.502 35.3729C105.921 35.3729 104.318 35.7178 102.708 36.2707ZM23.3611 25.6339L9.33996 7.49707H-0.0111084V39.1403H9.09415V20.9124L23.2974 39.1403H32.4656V7.49707H23.3611V25.6339ZM191.3 7.49707H180.731L174.748 15.903L168.74 7.49707H158.04L169.088 22.6673L156.984 39.1403H167.56L174.624 29.4857L181.626 39.1403H192.325L180.284 22.6066L191.3 7.49707ZM56.9825 32.134C52.254 32.134 48.4207 28.1874 48.4207 23.3179C48.4207 18.4499 52.254 14.5026 56.9825 14.5026C61.711 14.5026 65.5436 18.4499 65.5436 23.3179C65.5436 28.1874 61.711 32.134 56.9825 32.134ZM56.9137 6.35941C46.546 6.35941 39.0326 13.4612 39.0326 23.3194C39.0326 33.1776 46.546 40.2794 56.9137 40.2794C67.2807 40.2794 74.7947 33.1776 74.7947 23.3194C74.7947 13.4612 67.2807 6.35941 56.9137 6.35941ZM202.883 7.91969C202.097 8.70428 201.135 9.10246 200.02 9.10246C198.892 9.10246 197.959 8.71906 197.173 7.93228C196.404 7.1514 196.013 6.18846 196.013 5.07011C196.013 3.94875 196.407 2.98507 197.184 2.20938C197.977 1.4048 198.908 1.01401 200.033 1.01401C201.151 1.01401 202.109 1.41219 202.883 2.19678C203.66 2.97397 204.054 3.93691 204.054 5.05827C204.054 6.1951 203.67 7.13065 202.883 7.91969ZM203.554 1.53878C202.601 0.572148 201.416 0.0821571 200.033 0.0821571C198.665 0.0821571 197.481 0.571396 196.512 1.53878C195.545 2.50541 195.055 3.68524 195.055 5.04492C195.055 6.41719 195.541 7.6051 196.499 8.57694C197.453 9.54432 198.638 10.0343 200.02 10.0343C201.417 10.0343 202.573 9.55842 203.554 8.57769C204.522 7.6103 205.011 6.43123 205.011 5.07155C205.011 3.6749 204.534 2.51951 203.554 1.53878ZM200.423 4.56307H199.173V3.40844H200.423C201.047 3.40844 201.119 3.74151 201.119 3.99168C201.119 4.46387 200.74 4.56307 200.423 4.56307ZM202.16 3.96649C202.16 3.06428 201.487 2.48173 200.448 2.48173H198.146V7.49707H199.173V5.46535H200.115L201.558 7.49707H202.757L201.217 5.33281C201.812 5.11598 202.16 4.6186 202.16 3.96649Z"/>
  </symbol>

  <svg id="svg-welcome" viewBox="0 0 1079 258" xmlns="http://www.w3.org/2000/svg">
    <path d="M383.008 87.0079V36.8218C402.245 37.5195 413.702 50.7382 413.702 61.238C413.702 73.9883 401.266 84.4482 383.008 87.0079ZM396.315 29.3237C388.506 29.3237 383.151 29.8604 367.84 31.0302H363.237V127.788H383.008V93.3525C385.624 93.267 389.75 93.0778 396.315 93.1542C418.993 93.4162 437.379 78.8658 437.379 61.238C437.379 43.6122 418.994 29.3237 396.315 29.3237ZM401.815 16.0631C414.532 17.5522 421.912 11.0911 421.912 11.0911C421.912 11.0911 411.988 12.5883 401.635 6.21909C392.704 0.723978 382.588 1.64185 382.588 1.64185L382.652 20.8041C382.652 20.8041 390.943 14.7905 401.815 16.0631Z" />
    <path d="M15.2501 89.0209C5.08401 79.286 0 67.0105 0 52.0535C0 36.9564 5.08401 24.6809 15.1091 15.0862C25.2761 5.49229 38.1239 0.694855 53.5152 0.694855C63.258 0.694855 71.8712 2.81069 79.6379 6.90313V27.3616C72.0123 22.2822 63.3991 19.7426 53.6563 19.7426C44.1956 19.7426 36.4308 22.8462 30.0761 28.9143C23.8634 34.9807 20.7574 42.6006 20.7574 52.0535C20.7574 61.5073 24.0044 69.2682 30.3592 75.3355C36.713 81.4027 44.7609 84.3654 54.5037 84.3654C65.2343 84.3654 74.2717 81.5437 81.614 75.7585V96.2169C73.5662 101.014 64.2466 103.413 53.5152 103.413C38.1239 103.413 25.4172 98.6166 15.2501 89.0209Z" />
    <path d="M240.825 68.4214C240.825 58.4027 233.906 52.0535 224.163 52.0535C216.257 52.0535 208.349 56.5689 204.396 62.7781C204.537 78.0162 211.597 86.4821 223.458 86.4821C233.624 86.4821 240.825 79.0041 240.825 68.4214ZM251.698 44.1534C257.487 49.9377 260.452 57.5568 260.452 67.0105C260.452 77.5923 256.922 86.3411 249.862 93.1133C242.942 99.8855 234.189 103.272 223.599 103.272C211.173 103.272 201.571 99.1805 194.935 90.8556C188.298 82.5307 184.909 71.3841 184.909 57.4158C184.909 38.6501 189.851 26.0926 201.571 17.4857C207.502 13.1113 214.421 9.58381 222.187 7.04408C230.094 4.36256 240.119 2.10571 252.263 0.130035V18.6137L244.778 19.8844L237.436 21.1543C235.883 21.4354 233.765 21.8593 230.799 22.5642C225.152 23.6931 223.317 24.3989 218.797 26.0926C214.28 27.7846 212.585 29.3373 209.62 32.018C205.667 35.5456 203.549 40.7659 202.983 47.539C209.338 39.4961 218.092 35.5456 229.247 35.5456C238.425 35.5456 245.908 38.3681 251.698 44.1534Z" />
    <path d="M498.094 73.6418C493.999 70.9611 489.198 69.5503 483.409 69.5503C474.937 69.5503 469.571 72.9359 469.571 78.7212C469.571 84.9294 474.796 87.8929 482.138 87.8929C489.057 87.8929 494.422 85.4943 498.094 80.6969V73.6418ZM526.9 85.2113V99.7445C524.357 101.72 520.828 102.707 516.167 102.707C508.12 102.707 502.895 99.7445 500.212 93.6782C493.999 100.027 485.951 103.272 475.925 103.272C460.677 103.272 449.945 93.9602 449.945 79.709C449.945 72.231 452.628 66.4457 458.134 62.4952C463.642 58.5447 470.137 56.5689 477.761 56.5689C485.669 56.5689 492.446 57.9798 498.094 60.9434V58.8266C498.094 49.9377 491.882 45.5642 479.455 45.5642C471.973 45.5642 464.771 47.539 458.134 51.4896V34.8406C465.336 31.0311 473.949 29.1964 484.256 29.1964C494.281 29.1964 502.471 31.595 508.543 36.5334C514.756 41.4718 517.862 48.244 517.862 56.8519V80.6969C517.862 84.2235 519.556 86.0582 522.803 86.0582C524.498 86.0582 525.911 85.7762 526.9 85.2113Z" />
    <path d="M540.737 101.438V31.0302H560.364V72.5129L592.275 31.0302H610.914V101.438H591.287V59.9555L559.375 101.438H540.737Z" />
    <path d="M637.037 93.1133C629.553 86.1992 625.741 77.1693 625.741 66.0227C625.741 54.8752 629.553 45.9872 637.037 39.3551C644.662 32.5829 653.699 29.1964 664.287 29.1964C672.054 29.1964 678.973 30.7482 685.186 33.8527V50.7846C679.114 47.962 673.043 46.5512 667.253 46.5512C661.041 46.5512 655.816 48.385 651.581 52.0544C647.486 55.5811 645.368 60.3785 645.368 66.1637C645.368 71.9489 647.486 76.7464 651.722 80.414C655.957 84.0835 661.183 85.9173 667.253 85.9173C674.455 85.9173 680.808 84.3645 686.315 81.1198V98.0517C679.68 101.579 672.336 103.272 664.006 103.272C653.558 103.272 644.52 99.8864 637.037 93.1133Z" />
    <path d="M747.596 63.765H732.912C726.276 63.765 722.322 60.6613 722.322 55.158C722.322 49.6548 726.276 46.5511 732.912 46.5511H747.596V63.765ZM729.664 31.0302C711.167 31.0302 701.989 40.7659 701.989 53.8882C701.989 64.3289 706.649 71.243 715.968 74.6296L697.047 101.438H709.615L722.381 83.4239L729.162 89.4347L737.592 80.7523L744.006 88.7662L751.337 83.6467L762.443 101.438H767.506V31.0302H729.664Z" />
    <path d="M600.298 6.17182C600.298 6.17182 589.433 -1.36081 582.116 4.51083C578.788 7.18149 576.318 9.22632 574.603 10.669C572.707 9.05989 569.692 6.5475 565.386 3.09267C557.255 -3.43298 545.181 4.93927 545.181 4.93927C545.181 4.93927 553.519 3.97958 560.704 9.49379C565.49 13.166 568.552 15.4728 569.982 16.5425C568.963 17.0964 567.857 17.6349 566.603 18.1216C563.45 19.3478 559.642 17.9633 559.642 17.9633C559.642 17.9633 560.226 22.6043 566.046 22.6043C569.815 22.6043 576.249 20.7805 581.737 18.7856C585.219 17.5212 589.116 17.6295 589.116 17.6295C589.116 17.6295 587.827 12.7857 584.623 11.5777C585.165 11.1639 585.727 10.7336 586.329 10.2715C592.796 5.30948 600.298 6.17182 600.298 6.17182Z" />
    <path d="M335.101 56.6144C333.623 58.1035 332.554 59.1805 330.971 61.0725C329.793 62.4806 327.869 64.8074 325.687 67.4626V101.438H345.314V45.3514C344.928 45.8899 344.516 46.4257 344.053 46.9559C339.415 52.2673 337.023 54.6769 335.101 56.6144ZM294.142 67.5254C294.332 67.2971 294.543 67.0433 294.764 66.7768V31.0311H275.138V88.587C276.144 87.0351 277.419 85.487 278.975 83.947C285.855 77.1338 291.02 71.2558 294.142 67.5254Z" />
    <path d="M323.599 58.6274C322.051 59.2396 320.301 58.4828 319.688 56.9373L317.098 50.4071C316.486 48.8616 317.242 47.1124 318.789 46.5002C320.336 45.8871 322.087 46.6439 322.7 48.1894L325.289 54.7197C325.902 56.2651 325.145 58.0143 323.599 58.6274ZM305.533 81.7466C305.196 83.3748 303.602 84.4218 301.972 84.0852L295.089 82.6617C293.46 82.3251 292.412 80.7324 292.75 79.1041C293.087 77.4758 294.682 76.4298 296.31 76.7664L303.194 78.189C304.822 78.5265 305.87 80.1192 305.533 81.7466ZM341.508 28.4995L341.507 28.4987C341.484 28.4804 338.459 26.1272 334.46 26.1272C331.592 26.1272 328.224 27.338 325.103 31.4932C317.616 41.46 317.583 42.6562 313.971 47.2598C310.358 51.8634 299.999 64.7929 296.244 69.281C292.489 73.7691 287.272 79.5853 280.903 85.8918C268.972 97.7051 279.237 105.305 279.257 105.32C279.267 105.329 282.116 107.844 286.177 107.844C289.566 107.844 293.8 106.092 297.93 99.6699C302.78 92.1336 307.387 85.8254 310.999 81.2217C314.613 76.618 325.114 63.8041 328.869 59.316C332.624 54.827 333.789 54.5459 341.989 45.1558C350.169 35.7857 341.545 28.5305 341.508 28.4995Z" />
    <path d="M158.347 70.6536H143.517L130.356 91.8608H123.057L130.408 70.5354H119.885L116.328 75.3928H110.243L113.229 66.9623L110.243 58.531H116.328L119.885 63.3885H130.408L123.057 42.0631H130.356L143.517 63.2692H158.347C160.395 63.2692 161.764 64.6456 162.129 66.1728H162.227L162.23 67.6928L162.141 67.6992C161.795 69.2465 160.419 70.6536 158.347 70.6536ZM160.404 39.92C153.062 32.7239 143.742 29.1964 132.306 29.1964C120.868 29.1964 111.549 32.7239 104.207 39.92C96.8642 46.975 93.193 55.723 93.193 66.1637C93.193 76.7464 96.8642 85.4943 104.207 92.6894C111.549 99.7445 120.868 103.272 132.306 103.272C143.742 103.272 153.062 99.7445 160.404 92.6894C167.746 85.4943 171.417 76.7464 171.417 66.1637C171.417 55.864 167.746 47.1161 160.404 39.92Z" />
    <path d="M22.2885 214.825H39.2327C46.1519 214.825 49.5391 212.145 49.5391 206.923C49.5391 201.703 46.1519 199.022 39.2327 199.022H22.2885V214.825ZM22.2885 186.464H36.1259C42.4797 186.464 45.5865 184.066 45.5865 179.269C45.5865 174.472 42.4797 172.073 36.1259 172.073H22.2885V186.464ZM2.66174 228.794V158.387H42.4797C57.1646 158.387 65.0713 166.147 65.0713 176.446C65.0713 183.501 62.2477 188.44 56.4581 191.403C65.3545 194.507 69.8732 200.574 69.8732 209.463C69.8732 221.316 60.5526 228.794 44.1747 228.794H2.66174Z" />
    <path d="M731.915 219.021C735.104 218.368 738.695 217.992 742.544 217.992C746.114 217.992 749.453 218.32 752.466 218.886C752.188 215.899 751.928 212.349 751.778 208.466C748.962 207.621 745.839 207.142 742.544 207.142C739.111 207.142 735.864 207.665 732.954 208.579C732.495 212.324 732.157 215.935 731.915 219.021ZM751.818 194.724C751.977 191.478 752.238 188.377 752.556 185.503C749.544 183.669 746.144 182.63 742.544 182.63C741.318 182.63 740.122 182.776 738.95 183.006C737.974 185.615 737.022 188.411 736.178 191.336C735.935 192.177 735.704 193.053 735.484 193.955C737.717 193.301 740.087 192.943 742.544 192.943C745.835 192.943 748.966 193.585 751.818 194.724ZM742.544 219.599C738.51 219.599 734.895 220.007 731.79 220.676C731.46 225.239 731.352 228.305 731.352 228.305H753.603C753.603 228.305 753.116 225.325 752.628 220.544C749.673 219.958 746.297 219.599 742.544 219.599ZM733.176 206.849C736.055 206.009 739.217 205.534 742.544 205.534C745.799 205.534 748.895 205.988 751.723 206.793C751.632 203.666 751.617 200.355 751.726 196.962C751.732 196.787 751.74 196.616 751.746 196.441C748.937 195.239 745.829 194.551 742.544 194.551C739.917 194.551 737.403 194.996 735.061 195.784C734.288 199.295 733.669 203.108 733.176 206.849ZM778.224 162.712C774.034 161.392 769.74 160.883 765.762 160.818C764.569 159.252 762.463 158.03 762.463 158.03C762.463 158.03 766.056 157.83 768.635 159.538C769.101 159.846 769.498 160.128 769.868 160.395C770.191 160.294 770.508 160.195 770.809 160.098C771.83 159.768 772.856 159.371 773.871 158.935C773.593 158.375 773.151 157.662 772.445 156.87C770.743 154.97 767.302 153.794 767.302 153.794C767.302 153.794 771.543 152.704 775.027 154.132C777.128 154.993 778.49 155.722 779.299 156.204C783.408 153.86 786.448 151.559 786.448 151.559C786.448 151.559 775.709 144.764 765.082 149.158C759.357 151.525 754.762 155.665 751.738 158.981C749.433 155.221 744.835 148.88 738.145 145.039C728.174 139.313 716.648 144.669 716.648 144.669C716.648 144.669 719.365 147.342 723.138 150.195C724.003 149.821 725.447 149.274 727.641 148.691C731.281 147.724 735.348 149.35 735.348 149.35C735.348 149.35 731.782 150.073 729.849 151.74C729.047 152.432 728.516 153.082 728.168 153.603C729.118 154.166 730.086 154.692 731.056 155.15C731.341 155.285 731.643 155.425 731.95 155.566C732.351 155.348 732.781 155.121 733.283 154.874C736.061 153.513 739.598 154.174 739.598 154.174C739.598 154.174 736.84 155.327 735.551 156.979C735.513 157.027 735.485 157.07 735.45 157.117C736.834 157.712 738.296 158.327 739.763 158.931C735.678 158.294 731.149 158.059 726.593 158.721C711.849 160.864 704.399 175.539 704.399 175.539C704.399 175.539 709.452 176.109 715.709 175.975C716.192 175.011 717.266 173.095 719.39 170.273C722.322 166.376 727.768 164.781 727.768 164.781C727.768 164.781 724.714 168.369 724.081 171.613C723.76 173.255 723.801 174.505 723.913 175.337C725.119 175.166 726.315 174.955 727.471 174.692C727.983 174.575 728.525 174.446 729.082 174.311C729.357 173.648 729.682 172.909 730.091 172.06C731.83 168.451 735.962 166.294 735.962 166.294C735.962 166.294 734.077 169.674 734.086 172.389C734.087 172.612 734.099 172.82 734.11 173.024C737.511 172.116 741.183 171.075 744.565 170.091C743.23 172.768 741.414 176.647 739.613 181.259C740.576 181.118 741.55 181.023 742.544 181.023C746.199 181.023 749.653 182.034 752.754 183.79C753.536 177.347 754.553 172.222 755.178 169.389C759.344 171.395 764.489 173.831 769.064 175.873C769.078 175.8 769.095 175.734 769.108 175.658C769.552 172.979 768.233 169.34 768.233 169.34C768.233 169.34 771.966 172.132 773.104 175.972C773.309 176.666 773.47 177.276 773.614 177.848C774.019 178.017 774.416 178.182 774.796 178.337C776.083 178.859 777.433 179.317 778.804 179.729C778.996 178.941 779.151 177.866 779.107 176.493C779.002 173.191 776.565 169.159 776.565 169.159C776.565 169.159 781.683 171.607 783.953 175.923C785.322 178.526 786.066 180.381 786.468 181.533C792.499 182.625 797.433 182.868 797.433 182.868C797.433 182.868 792.435 167.19 778.224 162.712Z" />
    <path d="M203.873 255.037V237.683C207.12 239.517 210.792 240.505 214.603 240.505C221.805 240.505 226.182 236.131 230.277 226.395L199.919 158.386H221.381L240.019 204.667L257.669 158.386H278.708L246.091 236.131C239.878 250.664 230.559 257.86 217.993 257.86C212.204 257.86 207.402 256.872 203.873 255.037Z" />
    <path d="M409.506 186.324C409.082 178.563 403.575 172.214 394.679 172.214C385.643 172.214 379.572 177.999 378.583 186.324H409.506ZM370.11 220.469C362.628 213.697 358.814 204.667 358.814 193.519C358.814 183.078 362.203 174.33 368.981 167.275C375.76 160.079 384.654 156.552 395.527 156.552C405.835 156.552 413.883 160.221 419.954 167.416C426.026 174.612 429.133 183.36 429.133 193.801V199.022H378.583C380.701 208.617 389.737 213.697 402.163 213.697C410.07 213.697 417.555 211.58 424.755 207.488V223.432C418.401 228.23 409.506 230.627 397.927 230.627C386.913 230.627 377.595 227.242 370.11 220.469Z" />
    <path d="M609.565 186.324C609.141 178.563 603.635 172.214 594.739 172.214C585.702 172.214 579.631 177.999 578.643 186.324H609.565ZM570.171 220.469C562.687 213.697 558.875 204.667 558.875 193.519C558.875 183.078 562.263 174.33 569.041 167.275C575.819 160.079 584.713 156.552 595.586 156.552C605.894 156.552 613.942 160.221 620.014 167.416C626.085 174.612 629.192 183.36 629.192 193.801V199.022H578.643C580.76 208.617 589.796 213.697 602.222 213.697C610.13 213.697 617.614 211.58 624.815 207.488V223.432C618.461 228.23 609.565 230.627 597.986 230.627C586.973 230.627 577.654 227.242 570.171 220.469Z" />
    <path d="M651.078 220.469C643.595 213.555 639.782 204.525 639.782 193.378C639.782 182.232 643.595 173.343 651.078 166.711C658.704 159.938 667.74 156.552 678.33 156.552C686.096 156.552 693.015 158.105 699.227 161.208V178.14C693.155 175.318 687.084 173.907 681.295 173.907C675.083 173.907 669.858 175.741 665.623 179.41C661.527 182.937 659.41 187.735 659.41 193.519C659.41 199.304 661.527 204.102 665.764 207.77C669.999 211.439 675.224 213.274 681.295 213.274C688.497 213.274 694.85 211.721 700.357 208.475V225.407C693.721 228.935 686.378 230.628 678.048 230.628C667.599 230.628 658.563 227.242 651.078 220.469Z" />
    <path d="M805.27 214.825H822.214C829.133 214.825 832.521 212.145 832.521 206.923C832.521 201.703 829.133 199.022 822.214 199.022H805.27V214.825ZM805.27 186.464H819.107C825.461 186.464 828.568 184.066 828.568 179.269C828.568 174.472 825.461 172.073 819.107 172.073H805.27V186.464ZM785.643 228.794V158.387H825.461C840.146 158.387 848.054 166.147 848.054 176.446C848.054 183.501 845.229 188.44 839.44 191.403C848.336 194.507 852.855 200.574 852.855 209.463C852.855 221.316 843.534 228.794 827.156 228.794H785.643Z" />
    <path d="M868.247 228.794V158.387H887.873V199.869L919.784 158.387H938.423V228.794H918.796V187.312L886.885 228.794H868.247Z" />
    <path d="M1003.94 186.324C1003.52 178.563 998.01 172.214 989.113 172.214C980.077 172.214 974.006 177.999 973.017 186.324H1003.94ZM964.544 220.469C957.062 213.697 953.249 204.667 953.249 193.519C953.249 183.078 956.638 174.33 963.415 167.275C970.193 160.079 979.088 156.552 989.961 156.552C1000.27 156.552 1008.32 160.221 1014.39 167.416C1020.46 174.612 1023.57 183.36 1023.57 193.801V199.022H973.017C975.135 208.617 984.171 213.697 996.597 213.697C1004.5 213.697 1011.99 211.58 1019.19 207.488V223.432C1012.83 228.23 1003.94 230.627 992.361 230.627C981.348 230.627 972.029 227.242 964.544 220.469Z" />
    <path d="M363.597 158.386H357.858L357.098 166.176C357.098 166.176 360.71 164.37 362.326 161.9C363.943 159.431 363.597 158.386 363.597 158.386ZM281.75 158.386C281.75 158.386 281.404 159.431 283.02 161.9C284.636 164.37 288.248 166.176 288.248 166.176L287.488 158.386H281.75ZM326.221 151.109C326.221 149.363 324.803 147.947 323.055 147.947H322.406C320.658 147.947 319.241 149.363 319.241 151.109V158.386H291.31L292.831 172.756L312.577 176.556L311.056 228.794H334.007L332.487 176.556L352.514 172.756L354.035 158.386H326.221V151.109Z" />
    <path d="M1047.12 170.41C1047.28 169.347 1048.12 168.593 1049.01 168.726C1049.89 168.86 1050.48 169.83 1050.32 170.894L1048.58 182.392L1045.38 181.909L1047.12 170.41ZM1050.86 153.838C1051.01 152.876 1051.77 152.194 1052.58 152.315C1053.38 152.436 1053.91 153.313 1053.76 154.276L1052.16 164.855L1049.26 164.417L1050.86 153.838ZM1054.23 139.156C1054.36 138.287 1055.06 137.671 1055.78 137.781C1056.5 137.89 1056.98 138.683 1056.85 139.55L1055.45 148.815L1052.83 148.421L1054.23 139.156ZM1057.22 125.805C1057.34 125.01 1057.98 124.445 1058.64 124.546C1059.3 124.646 1059.74 125.372 1059.62 126.167L1058.34 134.62L1055.94 134.258L1057.22 125.805ZM1061.51 138.646C1062.24 138.755 1062.71 139.547 1062.58 140.415L1061.18 149.68L1058.57 149.287L1059.97 140.02C1060.1 139.152 1060.79 138.537 1061.51 138.646ZM1062.48 126.599C1062.6 125.803 1063.23 125.239 1063.89 125.338C1064.56 125.438 1065 126.165 1064.88 126.961L1063.6 135.412L1061.2 135.051L1062.48 126.599ZM1066.39 154.399C1067.19 154.52 1067.72 155.397 1067.58 156.36L1065.98 166.939L1063.08 166.501L1064.68 155.922C1064.82 154.96 1065.59 154.279 1066.39 154.399ZM1066.7 141.036C1066.83 140.168 1067.52 139.553 1068.24 139.662C1068.97 139.771 1069.44 140.562 1069.31 141.431L1067.91 150.697L1065.3 150.302L1066.7 141.036ZM1068.65 127.529C1068.77 126.733 1069.4 126.169 1070.06 126.268C1070.73 126.369 1071.17 127.095 1071.05 127.891L1069.77 136.343L1067.37 135.981L1068.65 127.529ZM1073.98 140.527C1074.7 140.636 1075.18 141.427 1075.05 142.296L1073.65 151.562L1071.03 151.167L1072.43 141.901C1072.56 141.033 1073.25 140.418 1073.98 140.527ZM1073.9 128.322C1074.02 127.526 1074.66 126.962 1075.32 127.062C1075.98 127.163 1076.42 127.888 1076.3 128.684L1075.03 137.137L1072.63 136.775L1073.9 128.322ZM1073.93 157.319L1072.33 167.898L1069.43 167.46L1071.03 156.881C1071.18 155.919 1071.94 155.236 1072.74 155.357C1073.54 155.478 1074.08 156.356 1073.93 157.319ZM1072.61 174.257L1070.88 185.755L1067.67 185.272L1069.41 173.773C1069.57 172.71 1070.42 171.955 1071.3 172.089C1072.19 172.223 1072.77 173.193 1072.61 174.257ZM1065.59 173.198L1063.85 184.695L1060.65 184.212L1062.38 172.714C1062.54 171.65 1063.39 170.897 1064.28 171.029C1065.16 171.163 1065.75 172.134 1065.59 173.198ZM1060.12 155.235L1058.52 165.814L1055.62 165.376L1057.22 154.797C1057.36 153.835 1058.13 153.152 1058.93 153.273C1059.73 153.394 1060.26 154.272 1060.12 155.235ZM1057.35 171.954L1055.61 183.451L1052.4 182.967L1054.14 171.47C1054.3 170.406 1055.15 169.652 1056.03 169.786C1056.92 169.92 1057.51 170.889 1057.35 171.954ZM1041.6 200.631L1043.45 188.393C1043.62 187.252 1044.53 186.443 1045.48 186.587C1046.43 186.73 1047.06 187.77 1046.89 188.912L1045.12 200.631H1049.31L1050.98 189.53C1051.16 188.388 1052.07 187.579 1053.02 187.723C1053.97 187.866 1054.6 188.907 1054.42 190.048L1052.82 200.631H1058.35L1059.83 190.864C1060 189.723 1060.91 188.915 1061.86 189.057C1062.81 189.2 1063.44 190.242 1063.27 191.382L1061.87 200.631H1066.06L1067.36 192C1067.54 190.859 1068.45 190.051 1069.39 190.194C1070.34 190.337 1070.97 191.378 1070.8 192.519L1069.58 200.631H1072.51L1074.67 186.327L1073.55 186.157L1076.22 168.484L1074.75 168.262L1077.19 152.096L1075.83 151.89L1077.99 137.583L1077.02 137.438L1079 124.365L1055.92 120.882L1053.95 133.957L1052.81 133.786L1050.65 148.092L1049.29 147.887L1046.85 164.053L1045.38 163.832L1042.71 181.505L1041.59 181.336L1038.67 200.621L1038.74 200.631H1041.6Z" />
    <path d="M1052.65 205.795C1059.43 205.795 1064.8 211.156 1064.8 218.07C1064.8 224.843 1059.43 230.346 1052.65 230.346C1045.88 230.346 1040.37 224.843 1040.37 218.07C1040.37 211.156 1045.88 205.795 1052.65 205.795Z" />
    <path d="M530.223 219.755L530.25 219.696C530.225 219.716 530.202 219.733 530.178 219.755H530.223ZM442.773 189.233L445.989 210.745C448.275 209.196 451.211 207.977 455.235 207.977C462.264 207.977 465.98 211.69 468.692 214.401C471.144 216.85 472.346 217.933 475.162 217.933C477.978 217.933 479.18 216.85 481.63 214.401C484.343 211.69 488.06 207.977 495.088 207.977C502.118 207.977 505.833 211.69 508.547 214.402C510.996 216.85 512.2 217.933 515.015 217.933C517.83 217.933 519.033 216.85 521.483 214.401C524.196 211.69 527.911 207.977 534.941 207.977C535.099 207.977 535.245 207.988 535.4 207.992L543.657 189.233H442.773Z" />
    <path d="M163.183 158.387H147.628V135.499H163.183V158.387ZM167.352 158.387V135.49C168.066 135.447 168.634 134.861 168.634 134.136V129.329C168.634 128.577 168.024 127.968 167.271 127.968H143.538C142.785 127.968 142.175 128.577 142.175 129.329V134.136C142.175 134.861 142.743 135.447 143.458 135.49V158.387H121.412V228.794H128.097V230.428C126.053 230.933 124.534 232.773 124.534 234.973C124.534 237.56 126.633 239.658 129.224 239.658C131.799 239.658 133.888 237.583 133.911 235.016H133.913V228.794H141.321V175.036H169.42V228.794H176.511V230.428C174.467 230.933 172.948 232.773 172.948 234.973C172.948 237.56 175.048 239.658 177.637 239.658C180.212 239.658 182.301 237.583 182.324 235.016H182.327V228.794H189.328V158.387H167.352Z" />
    <path d="M456.968 157.192L457.688 185.951H473.716L468.679 157.192H456.968ZM483.583 157.192L484.304 185.951H500.331L495.294 157.192H483.583ZM521.91 157.192H510.199L510.918 185.951H526.946L521.91 157.192Z" />
    <path d="M542.504 231.459L549.5 224.468C549.13 224.119 548.745 223.743 548.314 223.31C545.627 220.609 541.947 216.91 534.941 216.91C527.912 216.91 524.196 220.623 521.483 223.335C519.033 225.784 517.831 226.866 515.014 226.866C512.199 226.866 510.997 225.784 508.547 223.335C505.834 220.623 502.117 216.91 495.088 216.91C488.06 216.91 484.344 220.623 481.631 223.335C479.18 225.784 477.977 226.866 475.162 226.866C472.345 226.866 471.144 225.784 468.693 223.335C465.98 220.623 462.264 216.91 455.235 216.91C448.205 216.91 444.49 220.623 441.777 223.335C441.378 223.733 441.02 224.083 440.674 224.41L447.67 231.401C448.055 231.03 448.419 230.668 448.767 230.32C451.216 227.871 452.42 226.789 455.235 226.789C458.051 226.789 459.253 227.871 461.703 230.32C464.417 233.032 468.132 236.745 475.162 236.745C482.191 236.745 485.908 233.032 488.621 230.32C491.071 227.871 492.272 226.789 495.088 226.789C497.904 226.789 499.106 227.871 501.557 230.32C504.269 233.032 507.986 236.745 515.014 236.745C522.044 236.745 525.76 233.032 528.473 230.32C530.923 227.871 532.126 226.789 534.941 226.789C537.719 226.789 538.898 227.858 541.304 230.274C541.681 230.654 542.082 231.053 542.504 231.459Z" />
  </svg>

  <symbol id="svg-steps1" viewBox="0 0 218 156" xmlns="http://www.w3.org/2000/svg">
    <path d="M45.1437 72.2776V49.8614H39.2193L33.9681 52.3583V58.8602L38.4185 57.0343V72.2776H45.1437ZM54.302 72.7252C57.8571 72.7252 60.8347 71.7012 62.7244 69.1394C63.6847 67.8579 64.1654 66.2882 64.1654 64.4634C64.1654 62.126 63.3646 60.3319 61.7311 59.0196C60.1307 57.7064 58.0165 57.0662 55.4228 57.0662L54.7189 57.0981L54.8464 55.5934H62.6607V49.8614H49.7866L48.3138 63.0224C50.0429 62.446 51.8358 62.1579 53.6937 62.1579C55.9992 62.1579 57.2795 63.0224 57.2795 64.4634C57.2795 66 56.1598 66.7689 53.8862 66.7689C51.8039 66.7689 49.7228 66.1287 47.7056 64.8154V71.1248C49.5941 72.1807 51.772 72.7252 54.302 72.7252ZM84.2759 72.7252C87.5736 72.7252 90.2961 71.2524 91.9295 69.0425C93.5618 66.8339 94.4264 64.0157 94.4264 61.0689C94.4264 58.1232 93.5618 55.3052 91.9295 53.0953C90.2961 50.8854 87.5736 49.4126 84.2759 49.4126C82.13 49.4126 80.2414 49.989 78.6717 51.1736C77.102 52.3264 75.9811 53.7674 75.2453 55.4965C74.5083 57.1949 74.1563 59.0515 74.1563 61.0689C74.1563 65.0717 75.5654 68.6587 78.6717 70.9961C80.2414 72.1489 82.13 72.7252 84.2759 72.7252ZM84.2759 66.5126C83.1871 66.5126 82.3544 65.9693 81.8099 64.8803C81.2654 63.7594 80.9772 62.5098 80.9772 61.0689C80.9772 59.6279 81.2654 58.3795 81.8099 57.2906C82.3544 56.1697 83.1871 55.6252 84.2759 55.6252C88.6945 55.3689 88.6945 66.7689 84.2759 66.5126ZM106.659 72.7252C109.958 72.7252 112.68 71.2524 114.313 69.0425C115.946 66.8339 116.811 64.0157 116.811 61.0689C116.811 58.1232 115.946 55.3052 114.313 53.0953C112.68 50.8854 109.958 49.4126 106.659 49.4126C104.514 49.4126 102.624 49.989 101.056 51.1736C99.4863 52.3264 98.3654 53.7674 97.6296 55.4965C96.8925 57.1949 96.5406 59.0515 96.5406 61.0689C96.5406 65.0717 97.9496 68.6587 101.056 70.9961C102.624 72.1489 104.514 72.7252 106.659 72.7252ZM106.659 66.5126C105.571 66.5126 104.739 65.9693 104.194 64.8803C103.65 63.7594 103.361 62.5098 103.361 61.0689C103.361 59.6279 103.65 58.3795 104.194 57.2906C104.739 56.1697 105.571 55.6252 106.659 55.6252C111.079 55.3689 111.079 66.7689 106.659 66.5126ZM129.043 72.7252C132.342 72.7252 135.063 71.2524 136.697 69.0425C138.33 66.8339 139.195 64.0157 139.195 61.0689C139.195 58.1232 138.33 55.3052 136.697 53.0953C135.063 50.8854 132.342 49.4126 129.043 49.4126C126.898 49.4126 125.009 49.989 123.439 51.1736C121.87 52.3264 120.75 53.7674 120.013 55.4965C119.277 57.1949 118.925 59.0515 118.925 61.0689C118.925 65.0717 120.333 68.6587 123.439 70.9961C125.009 72.1489 126.898 72.7252 129.043 72.7252ZM129.043 66.5126C127.954 66.5126 127.122 65.9693 126.577 64.8803C126.034 63.7594 125.745 62.5098 125.745 61.0689C125.745 59.6279 126.034 58.3795 126.577 57.2906C127.122 56.1697 127.954 55.6252 129.043 55.6252C133.463 55.3689 133.463 66.7689 129.043 66.5126ZM144.734 64.3996V65.648H140.828V69.0744H144.734V72.2776H151.587V69.0744H158.473V65.648H151.587V64.3996H155.046C157.608 64.3996 159.658 63.7275 161.194 62.3504C162.764 60.9732 163.531 59.2441 163.531 57.13C163.531 54.9851 162.764 53.2559 161.194 51.9107C159.658 50.5335 157.608 49.8614 155.046 49.8614H144.734V59.8523H140.828V64.3996H144.734ZM151.428 55.4327H153.861C155.623 55.4327 156.744 56.2335 156.744 57.6107C156.744 59.0515 155.623 59.8523 153.861 59.8523H151.428V55.4327Z" />
    <path fill-rule="evenodd" clip-rule="evenodd" d="M109.554 130.377V156.327L98.754 145.528L87.9563 156.327V130.388C88.3803 130.577 88.861 130.651 89.3535 130.578L93.7106 129.914L97.2835 132.359L97.339 132.397C98.167 132.96 99.2914 132.994 100.169 132.397L103.798 129.914L108.157 130.57C108.635 130.64 109.121 130.572 109.554 130.377Z" />
    <path fill-rule="evenodd" clip-rule="evenodd" d="M98.754 85.2673L103.202 88.3099L108.529 87.4985L111.216 92.1697L116.367 93.7501L116.761 99.1241L120.717 102.782L118.741 107.796L120.717 112.808L116.761 116.467L116.367 121.841L111.216 123.421L108.529 128.092L103.202 127.28L98.754 130.323L94.3071 127.28L88.9803 128.092L86.2933 123.421L81.1426 121.841L80.7481 116.467L76.7925 112.808L78.7685 107.796L76.7925 102.782L80.7481 99.1241L81.1426 93.7501L86.2933 92.1697L88.9803 87.4985L94.3071 88.3099L98.754 85.2673ZM100.169 98.3103L100.223 98.3481L100.814 98.7509L101.597 98.6316C102.727 98.4627 103.795 99.0733 104.252 100.061L104.532 100.548L105.277 100.776C106.299 101.086 106.978 101.992 107.05 102.997L107.114 103.785L107.68 104.308C108.457 105.027 108.675 106.127 108.311 107.058L108.028 107.796L108.319 108.53C108.731 109.586 108.38 110.753 107.532 111.419L107.114 111.806L107.056 112.593C106.977 113.724 106.158 114.627 105.106 114.867L104.532 115.042L104.142 115.721C103.614 116.641 102.589 117.098 101.598 116.95L100.814 116.839L100.169 117.281C99.2914 117.879 98.167 117.845 97.339 117.281L97.2823 117.242L96.6941 116.839L95.9122 116.959C94.7831 117.128 93.7142 116.517 93.2571 115.531L92.9784 115.045L92.2224 114.814C91.2031 114.501 90.5287 113.596 90.4567 112.593L90.3953 111.806L89.8295 111.282C89.0523 110.563 88.8338 109.463 89.1976 108.533L89.4799 107.796L89.1905 107.06C88.7783 106.004 89.1291 104.837 89.9772 104.171L90.3953 103.785L90.4531 102.997C90.5311 101.882 91.3307 100.987 92.3618 100.734L92.9784 100.545L93.3669 99.8694C93.8949 98.9493 94.9201 98.4922 95.911 98.6399L96.6953 98.7509L97.339 98.3103C98.2166 97.7127 99.341 97.7469 100.169 98.3103ZM98.8024 103.459L98.7563 103.428C98.2437 103.797 97.5918 103.973 96.9185 103.871L96.8524 103.861C96.5512 104.414 96.041 104.852 95.3914 105.052L95.3406 105.067L95.337 105.119C95.2851 105.731 95.0169 106.33 94.5303 106.78L94.4914 106.815L94.5173 106.882C94.7394 107.449 94.7559 108.098 94.5173 108.71L94.4949 108.767C94.9709 109.187 95.2886 109.788 95.337 110.471L95.3406 110.523L95.3914 110.538C95.976 110.721 96.4981 111.115 96.8264 111.687L96.8512 111.73L96.9185 111.719C97.5233 111.632 98.1622 111.761 98.7067 112.132L98.7528 112.163C99.2666 111.796 99.9173 111.619 100.591 111.719L100.658 111.73L100.681 111.687C100.989 111.154 101.491 110.731 102.126 110.538L102.169 110.525L102.172 110.471C102.224 109.859 102.492 109.26 102.979 108.81L103.017 108.775L102.991 108.71C102.769 108.143 102.752 107.493 102.991 106.882L103.014 106.824C102.538 106.402 102.22 105.802 102.172 105.119L102.169 105.065L102.126 105.052C101.537 104.871 101.012 104.478 100.681 103.903L100.658 103.86L100.591 103.871C99.9858 103.958 99.3469 103.83 98.8024 103.459Z" />
    <path fill-rule="evenodd" clip-rule="evenodd" d="M98.754 100.384L100.217 101.385L101.97 101.118L102.854 102.654L104.55 103.174L104.678 104.942L105.98 106.146L105.329 107.796L105.98 109.444L104.678 110.648L104.55 112.416L102.854 112.936L101.97 114.472L100.217 114.205L98.754 115.207L97.2918 114.205L95.539 114.472L94.6543 112.936L92.9595 112.416L92.8307 110.648L91.5291 109.444L92.1787 107.796L91.5291 106.146L92.8307 104.942L92.9595 103.174L94.6543 102.654L95.539 101.118L97.2918 101.385L98.754 100.384Z" />
    <path d="M18.7319 20.85H178.777C183.885 20.85 188.527 22.9382 191.89 26.3008C195.254 29.6646 197.341 34.3063 197.341 39.4146V104.016C197.341 109.123 195.254 113.766 191.89 117.129C188.527 120.493 183.885 122.58 178.777 122.58H133.579V116.591H178.777C182.232 116.591 185.376 115.175 187.656 112.895C189.936 110.615 191.352 107.471 191.352 104.016V39.4146C191.352 35.9599 189.936 32.8158 187.656 30.535C185.376 28.2543 182.232 26.8393 178.777 26.8393H18.7319C15.2771 26.8393 12.1331 28.2543 9.85237 30.535C7.57279 32.8158 6.15669 35.9599 6.15669 39.4146V104.016C6.15669 107.471 7.57279 110.615 9.85237 112.895C12.1331 115.175 15.2771 116.591 18.7319 116.591H63.9304V122.58H18.7319C13.6249 122.58 8.98188 120.493 5.6193 117.129C2.25552 113.766 0.167328 109.123 0.167328 104.016V39.4146C0.167328 34.3063 2.25552 29.6646 5.6193 26.3008C8.98188 22.9382 13.6249 20.85 18.7319 20.85Z" />
    <path d="M28.9625 10.5H189.008C194.115 10.5 198.758 12.5882 202.12 15.9508C205.483 19.3133 207.571 23.9563 207.571 29.0646V93.6661C207.571 98.7732 205.483 103.416 202.12 106.779C200.423 108.476 198.399 109.848 196.155 110.792C196.637 109.146 196.895 107.406 196.895 105.609V103.437C197.241 103.157 197.572 102.86 197.886 102.544C200.167 100.265 201.582 97.1208 201.582 93.6661V29.0646C201.582 25.6098 200.167 22.4657 197.886 20.185C195.605 17.9044 192.463 16.4894 189.008 16.4894H28.9625C25.5079 16.4894 22.3638 17.9044 20.0831 20.185C19.4027 20.8653 18.7992 21.6236 18.2866 22.4433H18.2854C15.7567 22.4433 13.3413 22.9559 11.1385 23.8818C12.0255 20.8488 13.6696 18.1311 15.8488 15.9508C19.2126 12.5882 23.8543 10.5 28.9625 10.5Z" />
    <path d="M39.224 0.270508H199.269C204.376 0.270508 209.019 2.3587 212.382 5.72128C215.746 9.08386 217.833 13.7268 217.833 18.8351V83.4366C217.833 88.5437 215.746 93.1867 212.382 96.5493C210.685 98.2465 208.661 99.6189 206.416 100.563C206.898 98.9161 207.157 97.1765 207.157 95.38V93.2079C207.503 92.928 207.833 92.6304 208.148 92.3162C210.428 90.0355 211.845 86.8914 211.845 83.4366V18.8351C211.845 15.3803 210.428 12.2362 208.148 9.95555C205.867 7.67487 202.724 6.25987 199.269 6.25987H39.224C35.7693 6.25987 32.6252 7.67487 30.3444 9.95555C29.6641 10.6358 29.0607 11.3941 28.5492 12.2138H28.5481C26.0181 12.2138 23.6028 12.7264 21.4 13.6524C22.287 10.6193 23.9311 7.90156 26.1103 5.72128C29.474 2.3587 34.1157 0.270508 39.224 0.270508Z" />
  </symbol>

  <symbol id="svg-steps2" viewBox="0 0 246 173" xmlns="http://www.w3.org/2000/svg">
    <path d="M44.4886 74.2291C48.6886 74.2291 52.2071 73.0173 54.4394 69.9913C55.5744 68.4771 56.1425 66.624 56.1425 64.4673C56.1425 61.7047 55.1965 59.5858 53.2665 58.035C51.3744 56.483 48.8775 55.7259 45.8126 55.7259L44.98 55.7637L45.1312 53.9862H54.3638V47.2126H39.1536L37.4126 62.7642C39.4559 62.0827 41.5748 61.7425 43.7693 61.7425C46.4929 61.7425 48.0071 62.7642 48.0071 64.4673C48.0071 66.2827 46.683 67.191 43.9961 67.191C41.537 67.191 39.078 66.4339 36.6933 64.8831V72.3369C38.9256 73.5854 41.4992 74.2291 44.4886 74.2291ZM70.5201 74.2291C74.4177 74.2291 77.6339 72.4881 79.5638 69.8779C81.4937 67.2665 82.5153 63.937 82.5153 60.4563C82.5153 56.9744 81.4937 53.6448 79.5638 51.0346C77.6339 48.4232 74.4177 46.6835 70.5201 46.6835C67.9854 46.6835 65.7531 47.3638 63.8988 48.7646C62.0445 50.1264 60.7205 51.8295 59.85 53.8728C58.9796 55.8771 58.5638 58.0716 58.5638 60.4563C58.5638 65.1854 60.228 69.4232 63.8988 72.1858C65.7531 73.5476 67.9854 74.2291 70.5201 74.2291ZM70.5201 66.8886C69.2338 66.8886 68.25 66.2449 67.6063 64.9587C66.9638 63.6346 66.6236 62.1583 66.6236 60.4563C66.6236 58.7531 66.9638 57.2779 67.6063 55.9917C68.25 54.6665 69.2338 54.024 70.5201 54.024C75.7418 53.7216 75.7418 67.191 70.5201 66.8886ZM106.352 74.2291C110.25 74.2291 113.466 72.4881 115.396 69.8779C117.326 67.2665 118.348 63.937 118.348 60.4563C118.348 56.9744 117.326 53.6448 115.396 51.0346C113.466 48.4232 110.25 46.6835 106.352 46.6835C103.818 46.6835 101.585 47.3638 99.7311 48.7646C97.8768 50.1264 96.5528 51.8295 95.6823 53.8728C94.8118 55.8771 94.3961 58.0716 94.3961 60.4563C94.3961 65.1854 96.0603 69.4232 99.7311 72.1858C101.585 73.5476 103.818 74.2291 106.352 74.2291ZM106.352 66.8886C105.066 66.8886 104.082 66.2449 103.439 64.9587C102.796 63.6346 102.456 62.1583 102.456 60.4563C102.456 58.7531 102.796 57.2779 103.439 55.9917C104.082 54.6665 105.066 54.024 106.352 54.024C111.574 53.7216 111.574 67.191 106.352 66.8886ZM132.801 74.2291C136.698 74.2291 139.915 72.4881 141.844 69.8779C143.774 67.2665 144.796 63.937 144.796 60.4563C144.796 56.9744 143.774 53.6448 141.844 51.0346C139.915 48.4232 136.698 46.6835 132.801 46.6835C130.266 46.6835 128.034 47.3638 126.179 48.7646C124.325 50.1264 123.001 51.8295 122.131 53.8728C121.26 55.8771 120.845 58.0716 120.845 60.4563C120.845 65.1854 122.509 69.4232 126.179 72.1858C128.034 73.5476 130.266 74.2291 132.801 74.2291ZM132.801 66.8886C131.515 66.8886 130.531 66.2449 129.887 64.9587C129.244 63.6346 128.904 62.1583 128.904 60.4563C128.904 58.7531 129.244 57.2779 129.887 55.9917C130.531 54.6665 131.515 54.024 132.801 54.024C138.022 53.7216 138.022 67.191 132.801 66.8886ZM159.249 74.2291C163.147 74.2291 166.363 72.4881 168.293 69.8779C170.223 67.2665 171.245 63.937 171.245 60.4563C171.245 56.9744 170.223 53.6448 168.293 51.0346C166.363 48.4232 163.147 46.6835 159.249 46.6835C156.715 46.6835 154.482 47.3638 152.628 48.7646C150.774 50.1264 149.45 51.8295 148.579 53.8728C147.709 55.8771 147.293 58.0716 147.293 60.4563C147.293 65.1854 148.957 69.4232 152.628 72.1858C154.482 73.5476 156.715 74.2291 159.249 74.2291ZM159.249 66.8886C157.963 66.8886 156.979 66.2449 156.335 64.9587C155.693 63.6346 155.353 62.1583 155.353 60.4563C155.353 58.7531 155.693 57.2779 156.335 55.9917C156.979 54.6665 157.963 54.024 159.249 54.024C164.471 53.7216 164.471 67.191 159.249 66.8886ZM177.79 64.3905V65.8669H173.173V69.9157H177.79V73.6988H185.887V69.9157H194.022V65.8669H185.887V64.3905H189.973C193 64.3905 195.422 63.5968 197.238 61.9693C199.093 60.3417 200.001 58.2996 200.001 55.8015C200.001 53.2669 199.093 51.2235 197.238 49.6339C195.422 48.0075 193 47.2126 189.973 47.2126H177.79V59.0177H173.173V64.3905H177.79ZM185.698 53.7972H188.574C190.655 53.7972 191.979 54.7421 191.979 56.3696C191.979 58.0716 190.655 59.0177 188.574 59.0177H185.698V53.7972Z" />
    <path fill-rule="evenodd" clip-rule="evenodd" d="M129.716 142.349V173.009L116.956 160.25L104.197 173.009V142.362C104.698 142.585 105.267 142.674 105.849 142.587L110.998 141.802L115.27 144.723C116.25 145.4 117.586 145.446 118.629 144.734L122.915 141.802L128.065 142.576C128.629 142.66 129.203 142.578 129.716 142.349Z" />
    <path fill-rule="evenodd" clip-rule="evenodd" d="M116.956 89.0483L122.211 92.6424L128.505 91.6845L131.68 97.2026L137.766 99.07L138.232 105.42L142.906 109.742L140.571 115.666L142.906 121.589L138.232 125.912L137.766 132.261L131.68 134.129L128.505 139.648L122.211 138.689L116.956 142.283L111.702 138.689L105.408 139.648L102.233 134.129L96.1465 132.261L95.68 125.912L91.0063 121.589L93.3414 115.666L91.0063 109.742L95.68 105.42L96.1465 99.07L102.233 97.2026L105.408 91.6845L111.702 92.6424L116.956 89.0483ZM118.643 104.468L119.389 104.978L120.314 104.837C121.651 104.636 122.914 105.361 123.454 106.529L123.781 107.098L124.674 107.372C125.877 107.742 126.676 108.811 126.761 109.996L126.831 110.925L127.502 111.545C128.421 112.395 128.679 113.693 128.25 114.794L127.915 115.666L128.257 116.535C128.744 117.781 128.33 119.158 127.331 119.945L126.831 120.407L126.764 121.335C126.672 122.653 125.731 123.709 124.512 124.009L123.781 124.233L123.322 125.031C122.698 126.118 121.486 126.658 120.315 126.483L119.389 126.353L118.629 126.873C117.587 127.585 116.25 127.54 115.27 126.864L114.523 126.353L113.598 126.494C112.261 126.695 110.999 125.972 110.459 124.804L110.131 124.233L109.239 123.959C108.035 123.59 107.237 122.521 107.152 121.335L107.081 120.407L106.41 119.786C105.491 118.936 105.234 117.638 105.663 116.537L105.998 115.666L105.656 114.796C105.169 113.55 105.582 112.173 106.581 111.387L107.081 110.925L107.148 109.996C107.241 108.678 108.182 107.622 109.4 107.322L110.131 107.098L110.59 106.301C111.215 105.213 112.427 104.673 113.597 104.848L114.523 104.978L115.284 104.458C116.326 103.746 117.663 103.791 118.643 104.468ZM117.013 110.542L116.96 110.505C116.353 110.941 115.583 111.149 114.785 111.03L114.709 111.018C114.35 111.67 113.748 112.19 112.982 112.425L112.923 112.442L112.918 112.504C112.857 113.228 112.54 113.935 111.966 114.467L111.92 114.509L111.951 114.586C112.211 115.256 112.233 116.022 111.951 116.745L111.924 116.814C112.486 117.311 112.861 118.02 112.918 118.827L112.923 118.889L112.982 118.907C113.673 119.124 114.289 119.588 114.678 120.265L114.706 120.313L114.785 120.301C115.501 120.199 116.256 120.35 116.9 120.789L116.953 120.826C117.56 120.391 118.33 120.182 119.127 120.301L119.203 120.313C119.561 119.661 120.163 119.142 120.93 118.907L120.99 118.888L120.995 118.827C121.056 118.103 121.372 117.396 121.947 116.864L121.993 116.822L121.962 116.745C121.702 116.075 121.68 115.309 121.962 114.586L121.989 114.518C121.427 114.02 121.051 113.312 120.995 112.504L120.99 112.444L120.93 112.425C120.239 112.209 119.622 111.743 119.233 111.066L119.205 111.018L119.127 111.03C118.411 111.133 117.657 110.981 117.013 110.542Z" />
    <path fill-rule="evenodd" clip-rule="evenodd" d="M116.956 106.909L118.685 108.091L120.756 107.776L121.8 109.591L123.803 110.205L123.955 112.295L125.493 113.717L124.726 115.666L125.493 117.614L123.955 119.036L123.803 121.126L121.8 121.74L120.756 123.555L118.685 123.24L116.956 124.422L115.227 123.24L113.157 123.555L112.111 121.74L110.109 121.126L109.957 119.036L108.419 117.614L109.187 115.666L108.419 113.717L109.957 112.295L110.109 110.205L112.111 109.591L113.157 107.776L115.227 108.091L116.956 106.909Z" />
    <path d="M22.4043 12.9346H211.508C217.544 12.9346 223.028 15.402 227.002 19.3751C230.975 23.3484 233.443 28.8346 233.443 34.8688V111.2C233.443 117.235 230.975 122.72 227.002 126.695C223.028 130.668 217.544 133.135 211.508 133.135H158.104V126.058H211.508C215.59 126.058 219.305 124.386 221.999 121.692C224.694 118.996 226.367 115.282 226.367 111.2V34.8688C226.367 30.787 224.694 27.0724 221.999 24.3783C219.305 21.683 215.59 20.0106 211.508 20.0106H22.4043C18.3224 20.0106 14.6078 21.683 11.9137 24.3783C9.21844 27.0724 7.54605 30.787 7.54605 34.8688V111.2C7.54605 115.282 9.21844 118.996 11.9137 121.692C14.6078 124.386 18.3224 126.058 22.4043 126.058H75.8091V133.135H22.4043C16.3689 133.135 10.8838 130.668 6.91066 126.695C2.93738 122.72 0.470093 117.235 0.470093 111.2V34.8688C0.470093 28.8346 2.93738 23.3484 6.91066 19.3751C10.8838 15.402 16.3689 12.9346 22.4043 12.9346Z" />
    <path d="M34.4917 0.705444H223.596C229.631 0.705444 235.116 3.17283 239.089 7.14601C243.064 11.1193 245.53 16.6055 245.53 22.6397V98.9709C245.53 105.006 243.064 110.491 239.089 114.466C237.084 116.471 234.692 118.092 232.041 119.207C232.61 117.261 232.916 115.206 232.916 113.083V110.517C233.324 110.187 233.715 109.835 234.086 109.463C236.782 106.767 238.454 103.053 238.454 98.9709V22.6397C238.454 18.5578 236.782 14.8433 234.086 12.1492C231.392 9.45389 227.678 7.7815 223.596 7.7815H34.4917C30.4098 7.7815 26.6952 9.45389 24.0012 12.1492C23.1969 12.9535 22.4835 13.8488 21.8788 14.8173H21.8776C18.8882 14.8173 16.0346 15.4232 13.4326 16.5169C14.4803 12.9335 16.422 9.72199 18.998 7.14601C22.9725 3.17283 28.4574 0.705444 34.4917 0.705444Z" />
  </symbol>

  <symbol id="svg-steps3" viewBox="0 0 272 188" xmlns="http://www.w3.org/2000/svg">
    <path d="M34.9579 71.6638C38.6724 71.6638 41.8118 70.6469 44.3323 68.6567C46.8964 66.6229 48.1791 63.9253 48.1791 60.565C48.1791 56.2753 45.8807 53.2693 41.2814 51.5L46.6319 47.1666V40.0918H25.8055V48.0076H35.5768L29.4752 52.6056V58.3103C30.935 57.6028 32.6583 57.2485 34.6484 57.2485C37.2575 57.2485 38.6724 58.5312 38.6724 60.2993C38.6724 62.2458 36.8158 63.4387 34.0295 63.4387C31.3319 63.4387 28.326 62.4666 25.098 60.565V69.1433C27.883 70.8241 31.1559 71.6638 34.9579 71.6638ZM64.6732 71.6638C69.2276 71.6638 72.9859 69.63 75.2405 66.5792C77.4964 63.5273 78.6893 59.6367 78.6893 55.569C78.6893 51.5 77.4964 47.6096 75.2405 44.5576C72.9859 41.5068 69.2276 39.4729 64.6732 39.4729C61.7098 39.4729 59.1019 40.269 56.9346 41.9048C54.7674 43.4969 53.2201 45.4871 52.2032 47.8741C51.1862 50.2173 50.6996 52.7827 50.6996 55.569C50.6996 61.0954 52.6461 66.0478 56.9346 69.2756C59.1019 70.8678 61.7098 71.6638 64.6732 71.6638ZM64.6732 63.0855C63.1697 63.0855 62.0193 62.3343 61.2681 60.8296C60.5157 59.2824 60.1189 57.5579 60.1189 55.569C60.1189 53.5788 60.5157 51.8544 61.2681 50.3508C62.0193 48.8024 63.1697 48.0513 64.6732 48.0513C70.7748 47.6981 70.7748 63.4387 64.6732 63.0855ZM95.5815 71.6638C100.136 71.6638 103.894 69.63 106.149 66.5792C108.405 63.5273 109.599 59.6367 109.599 55.569C109.599 51.5 108.405 47.6096 106.149 44.5576C103.894 41.5068 100.136 39.4729 95.5815 39.4729C92.6192 39.4729 90.0103 40.269 87.8429 41.9048C85.6768 43.4969 84.1283 45.4871 83.1114 47.8741C82.0945 50.2173 81.609 52.7827 81.609 55.569C81.609 61.0954 83.5543 66.0478 87.8429 69.2756C90.0103 70.8678 92.6192 71.6638 95.5815 71.6638ZM95.5815 63.0855C94.0779 63.0855 92.9287 62.3343 92.1763 60.8296C91.4251 59.2824 91.0271 57.5579 91.0271 55.569C91.0271 53.5788 91.4251 51.8544 92.1763 50.3508C92.9287 48.8024 94.0779 48.0513 95.5815 48.0513C101.683 47.6981 101.683 63.4387 95.5815 63.0855ZM137.456 71.6638C142.011 71.6638 145.769 69.63 148.024 66.5792C150.28 63.5273 151.472 59.6367 151.472 55.569C151.472 51.5 150.28 47.6096 148.024 44.5576C145.769 41.5068 142.011 39.4729 137.456 39.4729C134.493 39.4729 131.884 40.269 129.718 41.9048C127.55 43.4969 126.003 45.4871 124.986 47.8741C123.969 50.2173 123.483 52.7827 123.483 55.569C123.483 61.0954 125.429 66.0478 129.718 69.2756C131.884 70.8678 134.493 71.6638 137.456 71.6638ZM137.456 63.0855C135.953 63.0855 134.802 62.3343 134.051 60.8296C133.299 59.2824 132.902 57.5579 132.902 55.569C132.902 53.5788 133.299 51.8544 134.051 50.3508C134.802 48.8024 135.953 48.0513 137.456 48.0513C143.558 47.6981 143.558 63.4387 137.456 63.0855ZM168.365 71.6638C172.919 71.6638 176.677 69.63 178.932 66.5792C181.188 63.5273 182.381 59.6367 182.381 55.569C182.381 51.5 181.188 47.6096 178.932 44.5576C176.677 41.5068 172.919 39.4729 168.365 39.4729C165.402 39.4729 162.793 40.269 160.626 41.9048C158.46 43.4969 156.911 45.4871 155.894 47.8741C154.878 50.2173 154.392 52.7827 154.392 55.569C154.392 61.0954 156.337 66.0478 160.626 69.2756C162.793 70.8678 165.402 71.6638 168.365 71.6638ZM168.365 63.0855C166.861 63.0855 165.712 62.3343 164.959 60.8296C164.207 59.2824 163.81 57.5579 163.81 55.569C163.81 53.5788 164.207 51.8544 164.959 50.3508C165.712 48.8024 166.861 48.0513 168.365 48.0513C174.466 47.6981 174.466 63.4387 168.365 63.0855ZM199.273 71.6638C203.827 71.6638 207.585 69.63 209.841 66.5792C212.096 63.5273 213.29 59.6367 213.29 55.569C213.29 51.5 212.096 47.6096 209.841 44.5576C207.585 41.5068 203.827 39.4729 199.273 39.4729C196.311 39.4729 193.702 40.269 191.534 41.9048C189.368 43.4969 187.821 45.4871 186.803 47.8741C185.786 50.2173 185.3 52.7827 185.3 55.569C185.3 61.0954 187.246 66.0478 191.534 69.2756C193.702 70.8678 196.311 71.6638 199.273 71.6638ZM199.273 63.0855C197.769 63.0855 196.62 62.3343 195.868 60.8296C195.117 59.2824 194.718 57.5579 194.718 55.569C194.718 53.5788 195.117 51.8544 195.868 50.3508C196.62 48.8024 197.769 48.0513 199.273 48.0513C205.376 47.6981 205.376 63.4387 199.273 63.0855ZM220.94 60.167V61.8914H215.545V66.6229H220.94V71.0449H230.402V66.6229H239.91V61.8914H230.402V60.167H235.178C238.716 60.167 241.546 59.2387 243.668 57.3371C245.834 55.4355 246.896 53.0473 246.896 50.1299C246.896 47.1666 245.834 44.7796 243.668 42.9217C241.546 41.0202 238.716 40.0918 235.178 40.0918H220.94V53.8882H215.545V60.167H220.94ZM230.181 47.7867H233.541C235.974 47.7867 237.522 48.891 237.522 50.7925C237.522 52.7827 235.974 53.8882 233.541 53.8882H230.181V47.7867Z" />
    <path d="M25.5067 0.945312H246.493C253.547 0.945312 259.956 3.8284 264.6 8.47247C269.244 13.1154 272.126 19.5264 272.126 26.5788V115.779C272.126 122.832 269.244 129.241 264.6 133.885C259.956 138.53 253.547 141.413 246.493 141.413H184.084V133.143H246.493C251.264 133.143 255.604 131.188 258.753 128.039C261.902 124.89 263.857 120.55 263.857 115.779V26.5788C263.857 21.8083 261.902 17.4678 258.753 14.3189C255.604 11.1702 251.264 9.21536 246.493 9.21536H25.5067C20.7363 9.21536 16.3957 11.1702 13.2468 14.3189C10.098 17.4678 8.14334 21.8083 8.14334 26.5788V115.779C8.14334 120.55 10.098 124.89 13.2468 128.039C16.3957 131.188 20.7363 133.143 25.5067 133.143H87.9162V141.413H25.5067C18.4544 141.413 12.0445 138.53 7.40035 133.885C2.75747 129.241 -0.12561 122.832 -0.12561 115.779V26.5788C-0.12561 19.5264 2.75747 13.1154 7.40035 8.47247C12.0445 3.8284 18.4544 0.945312 25.5067 0.945312Z" />
    <path fill-rule="evenodd" clip-rule="evenodd" d="M150.91 152.18V188.01L136 173.098L121.09 188.01V152.194C121.674 152.456 122.339 152.559 123.02 152.456L129.037 151.54L133.989 154.927C135.138 155.745 136.721 155.807 137.954 154.966L142.963 151.54L148.98 152.456L148.983 152.444C149.641 152.543 150.311 152.448 150.91 152.18Z" />
    <path fill-rule="evenodd" clip-rule="evenodd" d="M136 89.8918L142.141 94.093L149.496 92.9721L153.206 99.4222L160.319 101.604L160.863 109.023L166.325 114.076L163.596 120.997L166.325 127.92L160.863 132.971L160.319 140.391L153.206 142.573L149.496 149.023L142.141 147.902L136 152.103L129.859 147.902L122.504 149.023L118.794 142.573L111.681 140.391L111.137 132.971L105.674 127.92L108.404 120.997L105.674 114.076L111.137 109.023L111.681 101.604L118.794 99.4222L122.504 92.9721L129.859 94.093L136 89.8918ZM138.009 107.939L138.842 108.508L139.924 108.344C141.486 108.109 142.961 108.956 143.592 110.321L143.975 110.986L145.019 111.306C146.427 111.739 147.359 112.986 147.457 114.373L147.541 115.459L148.324 116.183C149.397 117.176 149.698 118.694 149.196 119.978L148.806 120.997L149.206 122.013C149.775 123.473 149.287 125.086 148.115 126.005L147.541 126.536L147.461 127.622C147.353 129.169 146.245 130.408 144.813 130.752L143.975 131.008L143.439 131.941C142.709 133.212 141.293 133.845 139.926 133.64L139.924 133.652L138.842 133.486L137.954 134.095C136.72 134.936 135.137 134.873 133.987 134.054L133.158 133.486L132.075 133.652C130.513 133.887 129.037 133.04 128.407 131.673L128.024 131.008L126.981 130.688C125.573 130.256 124.641 129.009 124.543 127.622L124.458 126.536L123.676 125.812C122.603 124.818 122.302 123.3 122.804 122.017L123.194 120.997L122.794 119.982C122.225 118.522 122.713 116.908 123.885 115.989L124.458 115.459L124.539 114.373C124.647 112.825 125.755 111.588 127.187 111.244L128.024 110.986L128.56 110.054C129.29 108.784 130.706 108.151 132.073 108.356L132.075 108.344L133.158 108.51L134.046 107.901C135.278 107.06 136.86 107.122 138.009 107.939ZM136.067 115.009L136.003 114.966C135.295 115.475 134.394 115.72 133.463 115.58L133.374 115.567C132.956 116.328 132.253 116.934 131.357 117.21L131.285 117.232L131.28 117.303L131.266 117.302C131.207 118.148 130.837 118.974 130.167 119.595L130.113 119.644L130.15 119.736C130.455 120.519 130.48 121.415 130.15 122.259L130.118 122.34C130.776 122.923 131.214 123.749 131.28 124.693L131.285 124.763L131.357 124.785C132.164 125.039 132.883 125.582 133.338 126.373L133.371 126.429L133.463 126.415C134.299 126.296 135.18 126.473 135.933 126.986L135.996 127.029C136.706 126.521 137.606 126.276 138.537 126.415L138.624 126.428C139.044 125.667 139.746 125.062 140.642 124.785L140.714 124.763L140.718 124.693L140.733 124.694C140.793 123.849 141.16 123.022 141.832 122.4L141.887 122.351L141.85 122.259C141.545 121.476 141.52 120.579 141.85 119.736L141.881 119.657C141.224 119.076 140.785 118.247 140.718 117.303L140.714 117.232L140.642 117.21C139.835 116.957 139.116 116.413 138.661 115.622L138.629 115.566L138.537 115.58C137.701 115.699 136.818 115.522 136.067 115.009Z" />
    <path fill-rule="evenodd" clip-rule="evenodd" d="M136 110.764L138.021 112.146L140.44 111.777L141.66 113.899L144.001 114.617L144.179 117.058L145.977 118.72L145.079 120.997L145.977 123.274L144.179 124.937L144.001 127.377L141.66 128.096L140.44 130.218L138.021 129.848L136 131.231L133.979 129.848L131.559 130.218L130.339 128.096L127.999 127.377L127.82 124.937L126.023 123.274L126.921 120.997L126.023 118.72L127.82 117.058L127.999 114.617L130.339 113.899L131.559 111.777L133.979 112.146L136 110.764Z" />
  </symbol>

  <symbol id="svg-user" viewBox="0 0 84 111" xmlns="http://www.w3.org/2000/svg">
    <path d="M67.5286 72.0768C67.4409 72.0673 54.7385 72.4443 52.8499 58.7518C54.9485 57.2789 56.8826 55.3668 58.5865 53.0466C61.9013 48.5329 64.0371 42.8706 64.7979 36.7459C65.0593 36.5081 65.2757 36.2122 65.4214 35.8633C66.798 32.5648 67.496 29.0427 67.496 25.3945C67.496 11.392 56.9955 0 44.0878 0C40.712 0 37.4369 0.782202 34.3437 2.32688C33.1637 2.4175 32.0075 2.62627 30.8986 2.94843C25.5973 4.4892 21.2834 8.44292 18.7512 14.0818C16.293 19.5568 15.8085 26.0019 17.3874 32.2303C17.721 33.546 18.1452 34.839 18.6482 36.0743C18.7844 36.4084 18.9874 36.6935 19.2312 36.928C20.4636 46.4877 24.9855 54.4083 31.1512 58.7328C29.2567 72.4484 16.5589 72.0677 16.4714 72.0772C7.33708 72.389 0 79.9558 0 89.2187V108.501C0 109.881 1.11232 111 2.48456 111H24.3023H59.6971H81.5152C82.8873 111 84 109.881 84 108.501V89.2187C83.9998 79.9554 76.6634 72.3883 67.5286 72.0768ZM32.2782 7.75069C33.1849 7.48707 34.1424 7.33076 35.1244 7.28631C35.4888 7.26984 35.8451 7.17293 36.1681 7.00209C38.6835 5.6727 41.3483 4.99868 44.088 4.99868C54.2551 4.99868 62.5269 14.1481 62.5269 25.3945C62.5269 25.732 62.5174 26.0678 62.5028 26.4023C60.5308 24.3879 57.7908 23.1359 54.7651 23.1359H37.8311C36.8236 23.1359 35.8673 22.8176 35.0653 22.2153C34.3806 21.7013 33.8513 21.0104 33.5351 20.2174C33.0454 18.9907 31.8381 18.2235 30.5238 18.3065C29.2048 18.3911 28.0948 19.3124 27.7616 20.6C26.7804 24.3931 24.8236 27.887 22.139 30.7203C19.6411 20.3793 24.1492 10.1131 32.2782 7.75069ZM30.1164 50.9775C26.8834 47.0045 24.7661 41.6394 24.0949 35.7658C27.2301 32.955 29.7087 29.4572 31.3223 25.5774C31.5671 25.8046 31.8243 26.0195 32.0928 26.2213C33.7601 27.4729 35.7442 28.1348 37.8313 28.1348H54.7653C57.1612 28.1348 59.2264 29.5804 60.148 31.6492C60.1478 31.667 60.1452 31.6839 60.1452 31.7017C60.1452 45.8104 52.007 57.2887 42.0037 57.2887C37.6501 57.2889 33.4282 55.0474 30.1164 50.9775ZM35.8255 61.1871C37.7951 61.9041 39.867 62.2876 42.0037 62.2876C44.1233 62.2876 46.1943 61.9164 48.1769 61.2003C49.0866 65.9679 51.7218 70.1232 55.4028 72.9839L42.356 91.6735C42.2709 91.7955 42.1526 91.8573 42.0043 91.8573C41.8562 91.8573 41.7379 91.7953 41.653 91.6737L28.603 72.9798C32.2842 70.1159 34.9185 65.9575 35.8255 61.1871ZM79.0305 106.001H59.6971H24.3023H4.96912V89.2182C4.96912 82.5145 10.3911 77.0605 17.0555 77.0605C17.146 77.0605 21.1442 76.9627 24.3033 75.5187L37.5859 94.546C38.5954 95.9925 40.2471 96.856 42.0041 96.856C42.0041 96.856 42.0041 96.856 42.0043 96.856C43.761 96.856 45.413 95.9925 46.4226 94.546L59.7027 75.5217C63.3056 77.0607 66.8538 77.0607 66.9443 77.0607C73.6087 77.0607 79.0305 82.5147 79.0305 89.2185V106.001Z"/>
  </symbol>

</svg>
